<mxfile host="app.diagrams.net" modified="2024-05-17T16:35:48.412Z" agent="Mozilla/5.0 (Macintosh; Intel Mac OS X 10_15_7) AppleWebKit/537.36 (KHTML, like Gecko) Chrome/124.0.0.0 Safari/537.36" etag="UcXqm4usztEnYYx1GBAb" version="24.4.4" type="device" pages="5">
  <diagram id="C5RBs43oDa-KdzZeNtuy" name="Điều khiển độ sáng">
    <mxGraphModel dx="1886" dy="817" grid="1" gridSize="10" guides="1" tooltips="1" connect="1" arrows="1" fold="1" page="1" pageScale="1" pageWidth="827" pageHeight="1169" math="0" shadow="0">
      <root>
        <mxCell id="WIyWlLk6GJQsqaUBKTNV-0" />
        <mxCell id="WIyWlLk6GJQsqaUBKTNV-1" parent="WIyWlLk6GJQsqaUBKTNV-0" />
        <mxCell id="WIyWlLk6GJQsqaUBKTNV-2" value="" style="rounded=0;html=1;jettySize=auto;orthogonalLoop=1;fontSize=11;endArrow=block;endFill=0;endSize=8;strokeWidth=1;shadow=0;labelBackgroundColor=none;edgeStyle=orthogonalEdgeStyle;strokeColor=#23445D;fontColor=default;entryX=0.5;entryY=0;entryDx=0;entryDy=0;" parent="WIyWlLk6GJQsqaUBKTNV-1" source="WIyWlLk6GJQsqaUBKTNV-3" target="PxChhtHw4VuLKCNX5EHR-1" edge="1">
          <mxGeometry relative="1" as="geometry">
            <mxPoint x="382.5" y="170" as="targetPoint" />
          </mxGeometry>
        </mxCell>
        <mxCell id="WIyWlLk6GJQsqaUBKTNV-3" value="Đèn đang sáng" style="rounded=1;whiteSpace=wrap;html=1;fontSize=12;glass=0;strokeWidth=1;shadow=0;labelBackgroundColor=none;fillColor=#182E3E;strokeColor=#FFFFFF;fontColor=#FFFFFF;" parent="WIyWlLk6GJQsqaUBKTNV-1" vertex="1">
          <mxGeometry x="322.5" y="60" width="120" height="40" as="geometry" />
        </mxCell>
        <mxCell id="WIyWlLk6GJQsqaUBKTNV-4" value="Yes" style="rounded=0;html=1;jettySize=auto;orthogonalLoop=1;fontSize=11;endArrow=block;endFill=0;endSize=8;strokeWidth=1;shadow=0;labelBackgroundColor=none;edgeStyle=orthogonalEdgeStyle;strokeColor=#23445D;fontColor=default;" parent="WIyWlLk6GJQsqaUBKTNV-1" source="WIyWlLk6GJQsqaUBKTNV-6" target="WIyWlLk6GJQsqaUBKTNV-10" edge="1">
          <mxGeometry y="20" relative="1" as="geometry">
            <mxPoint as="offset" />
          </mxGeometry>
        </mxCell>
        <mxCell id="WIyWlLk6GJQsqaUBKTNV-5" value="No" style="edgeStyle=orthogonalEdgeStyle;rounded=0;html=1;jettySize=auto;orthogonalLoop=1;fontSize=11;endArrow=block;endFill=0;endSize=8;strokeWidth=1;shadow=0;labelBackgroundColor=none;strokeColor=#23445D;fontColor=default;" parent="WIyWlLk6GJQsqaUBKTNV-1" source="WIyWlLk6GJQsqaUBKTNV-6" target="WIyWlLk6GJQsqaUBKTNV-7" edge="1">
          <mxGeometry y="10" relative="1" as="geometry">
            <mxPoint as="offset" />
          </mxGeometry>
        </mxCell>
        <mxCell id="WIyWlLk6GJQsqaUBKTNV-6" value="Ánh sáng thay đổi?" style="rhombus;whiteSpace=wrap;html=1;shadow=0;fontFamily=Helvetica;fontSize=12;align=center;strokeWidth=1;spacing=6;spacingTop=-4;labelBackgroundColor=none;fillColor=#182E3E;strokeColor=#FFFFFF;fontColor=#FFFFFF;" parent="WIyWlLk6GJQsqaUBKTNV-1" vertex="1">
          <mxGeometry x="297.5" y="270" width="170" height="75" as="geometry" />
        </mxCell>
        <mxCell id="WIyWlLk6GJQsqaUBKTNV-7" value="Đèn sáng bình thường" style="rounded=1;whiteSpace=wrap;html=1;fontSize=12;glass=0;strokeWidth=1;shadow=0;labelBackgroundColor=none;fillColor=#182E3E;strokeColor=#FFFFFF;fontColor=#FFFFFF;" parent="WIyWlLk6GJQsqaUBKTNV-1" vertex="1">
          <mxGeometry x="522.5" y="287.5" width="120" height="40" as="geometry" />
        </mxCell>
        <mxCell id="WIyWlLk6GJQsqaUBKTNV-8" value="No" style="rounded=0;html=1;jettySize=auto;orthogonalLoop=1;fontSize=11;endArrow=block;endFill=0;endSize=8;strokeWidth=1;shadow=0;labelBackgroundColor=none;edgeStyle=orthogonalEdgeStyle;strokeColor=#23445D;fontColor=default;" parent="WIyWlLk6GJQsqaUBKTNV-1" source="WIyWlLk6GJQsqaUBKTNV-10" target="WIyWlLk6GJQsqaUBKTNV-11" edge="1">
          <mxGeometry x="0.3333" y="20" relative="1" as="geometry">
            <mxPoint as="offset" />
          </mxGeometry>
        </mxCell>
        <mxCell id="WIyWlLk6GJQsqaUBKTNV-9" value="Yes" style="edgeStyle=orthogonalEdgeStyle;rounded=0;html=1;jettySize=auto;orthogonalLoop=1;fontSize=11;endArrow=block;endFill=0;endSize=8;strokeWidth=1;shadow=0;labelBackgroundColor=none;strokeColor=#23445D;fontColor=default;" parent="WIyWlLk6GJQsqaUBKTNV-1" source="WIyWlLk6GJQsqaUBKTNV-10" target="WIyWlLk6GJQsqaUBKTNV-12" edge="1">
          <mxGeometry y="10" relative="1" as="geometry">
            <mxPoint as="offset" />
          </mxGeometry>
        </mxCell>
        <mxCell id="WIyWlLk6GJQsqaUBKTNV-10" value="Ánh sáng giảm?" style="rhombus;whiteSpace=wrap;html=1;shadow=0;fontFamily=Helvetica;fontSize=12;align=center;strokeWidth=1;spacing=6;spacingTop=-4;labelBackgroundColor=none;fillColor=#182E3E;strokeColor=#FFFFFF;fontColor=#FFFFFF;" parent="WIyWlLk6GJQsqaUBKTNV-1" vertex="1">
          <mxGeometry x="290" y="420" width="185" height="80" as="geometry" />
        </mxCell>
        <mxCell id="WIyWlLk6GJQsqaUBKTNV-11" value="Giảm độ sáng đèn" style="rounded=1;whiteSpace=wrap;html=1;fontSize=12;glass=0;strokeWidth=1;shadow=0;labelBackgroundColor=none;fillColor=#182E3E;strokeColor=#FFFFFF;fontColor=#FFFFFF;" parent="WIyWlLk6GJQsqaUBKTNV-1" vertex="1">
          <mxGeometry x="322.5" y="560" width="120" height="40" as="geometry" />
        </mxCell>
        <mxCell id="WIyWlLk6GJQsqaUBKTNV-12" value="Tăng độ sáng đèn" style="rounded=1;whiteSpace=wrap;html=1;fontSize=12;glass=0;strokeWidth=1;shadow=0;labelBackgroundColor=none;fillColor=#182E3E;strokeColor=#FFFFFF;fontColor=#FFFFFF;" parent="WIyWlLk6GJQsqaUBKTNV-1" vertex="1">
          <mxGeometry x="552.5" y="440" width="120" height="40" as="geometry" />
        </mxCell>
        <mxCell id="PxChhtHw4VuLKCNX5EHR-0" value="Điều khiển độ sáng đèn tự động" style="text;html=1;align=center;verticalAlign=middle;whiteSpace=wrap;rounded=0;fontColor=#000000;fontStyle=1;fontSize=20;" parent="WIyWlLk6GJQsqaUBKTNV-1" vertex="1">
          <mxGeometry x="280" y="10" width="400" height="30" as="geometry" />
        </mxCell>
        <mxCell id="PxChhtHw4VuLKCNX5EHR-2" value="" style="edgeStyle=orthogonalEdgeStyle;rounded=0;orthogonalLoop=1;jettySize=auto;html=1;strokeColor=#23445D;" parent="WIyWlLk6GJQsqaUBKTNV-1" source="PxChhtHw4VuLKCNX5EHR-1" target="WIyWlLk6GJQsqaUBKTNV-6" edge="1">
          <mxGeometry relative="1" as="geometry" />
        </mxCell>
        <mxCell id="PxChhtHw4VuLKCNX5EHR-1" value="Cảm biến ánh sáng đang hoạt động" style="rounded=1;whiteSpace=wrap;html=1;fontSize=12;glass=0;strokeWidth=1;shadow=0;labelBackgroundColor=none;fillColor=#182E3E;strokeColor=#FFFFFF;fontColor=#FFFFFF;" parent="WIyWlLk6GJQsqaUBKTNV-1" vertex="1">
          <mxGeometry x="322.5" y="160" width="120" height="40" as="geometry" />
        </mxCell>
      </root>
    </mxGraphModel>
  </diagram>
  <diagram id="SeV-0DT8bXnxC-JV_Qcl" name="Bật đèn khi có người">
    <mxGraphModel dx="1886" dy="817" grid="1" gridSize="10" guides="1" tooltips="1" connect="1" arrows="1" fold="1" page="1" pageScale="1" pageWidth="850" pageHeight="1100" math="0" shadow="0">
      <root>
        <mxCell id="0" />
        <mxCell id="1" parent="0" />
        <mxCell id="Pme1cLi6MLW0r7BEgCn5-1" value="" style="rounded=0;html=1;jettySize=auto;orthogonalLoop=1;fontSize=11;endArrow=block;endFill=0;endSize=8;strokeWidth=1;shadow=0;labelBackgroundColor=none;edgeStyle=orthogonalEdgeStyle;strokeColor=#23445D;fontColor=default;entryX=0.5;entryY=0;entryDx=0;entryDy=0;" edge="1" parent="1" source="Pme1cLi6MLW0r7BEgCn5-2" target="Pme1cLi6MLW0r7BEgCn5-14">
          <mxGeometry relative="1" as="geometry">
            <mxPoint x="365" y="220" as="targetPoint" />
          </mxGeometry>
        </mxCell>
        <mxCell id="Pme1cLi6MLW0r7BEgCn5-2" value="Đèn đang tắt/ sáng yếu" style="rounded=1;whiteSpace=wrap;html=1;fontSize=12;glass=0;strokeWidth=1;shadow=0;labelBackgroundColor=none;fillColor=#182E3E;strokeColor=#FFFFFF;fontColor=#FFFFFF;" vertex="1" parent="1">
          <mxGeometry x="305" y="110" width="120" height="40" as="geometry" />
        </mxCell>
        <mxCell id="Pme1cLi6MLW0r7BEgCn5-3" value="Yes" style="rounded=0;html=1;jettySize=auto;orthogonalLoop=1;fontSize=11;endArrow=block;endFill=0;endSize=8;strokeWidth=1;shadow=0;labelBackgroundColor=none;edgeStyle=orthogonalEdgeStyle;strokeColor=#23445D;fontColor=default;entryX=0.5;entryY=0;entryDx=0;entryDy=0;" edge="1" parent="1" source="Pme1cLi6MLW0r7BEgCn5-5" target="Pme1cLi6MLW0r7BEgCn5-11">
          <mxGeometry y="20" relative="1" as="geometry">
            <mxPoint as="offset" />
            <mxPoint x="365" y="470" as="targetPoint" />
          </mxGeometry>
        </mxCell>
        <mxCell id="Pme1cLi6MLW0r7BEgCn5-4" value="No" style="edgeStyle=orthogonalEdgeStyle;rounded=0;html=1;jettySize=auto;orthogonalLoop=1;fontSize=11;endArrow=block;endFill=0;endSize=8;strokeWidth=1;shadow=0;labelBackgroundColor=none;strokeColor=#23445D;fontColor=default;" edge="1" parent="1" source="Pme1cLi6MLW0r7BEgCn5-5" target="Pme1cLi6MLW0r7BEgCn5-6">
          <mxGeometry y="10" relative="1" as="geometry">
            <mxPoint as="offset" />
          </mxGeometry>
        </mxCell>
        <mxCell id="Pme1cLi6MLW0r7BEgCn5-5" value="Có người đi qua?" style="rhombus;whiteSpace=wrap;html=1;shadow=0;fontFamily=Helvetica;fontSize=12;align=center;strokeWidth=1;spacing=6;spacingTop=-4;labelBackgroundColor=none;fillColor=#182E3E;strokeColor=#FFFFFF;fontColor=#FFFFFF;" vertex="1" parent="1">
          <mxGeometry x="280" y="320" width="170" height="75" as="geometry" />
        </mxCell>
        <mxCell id="Pme1cLi6MLW0r7BEgCn5-6" value="Đèn sáng yếu/tắt" style="rounded=1;whiteSpace=wrap;html=1;fontSize=12;glass=0;strokeWidth=1;shadow=0;labelBackgroundColor=none;fillColor=#182E3E;strokeColor=#FFFFFF;fontColor=#FFFFFF;" vertex="1" parent="1">
          <mxGeometry x="505" y="337.5" width="120" height="40" as="geometry" />
        </mxCell>
        <mxCell id="Pme1cLi6MLW0r7BEgCn5-11" value="Đèn bật / tăng độ sáng đèn" style="rounded=1;whiteSpace=wrap;html=1;fontSize=12;glass=0;strokeWidth=1;shadow=0;labelBackgroundColor=none;fillColor=#182E3E;strokeColor=#FFFFFF;fontColor=#FFFFFF;" vertex="1" parent="1">
          <mxGeometry x="305" y="490" width="120" height="40" as="geometry" />
        </mxCell>
        <mxCell id="Pme1cLi6MLW0r7BEgCn5-12" value="Bật đèn khi có người đi qua" style="text;html=1;align=center;verticalAlign=middle;whiteSpace=wrap;rounded=0;fontColor=#000000;fontStyle=1;fontSize=20;" vertex="1" parent="1">
          <mxGeometry x="280" y="50" width="360" height="30" as="geometry" />
        </mxCell>
        <mxCell id="Pme1cLi6MLW0r7BEgCn5-13" value="" style="edgeStyle=orthogonalEdgeStyle;rounded=0;orthogonalLoop=1;jettySize=auto;html=1;strokeColor=#23445D;" edge="1" parent="1" source="Pme1cLi6MLW0r7BEgCn5-14" target="Pme1cLi6MLW0r7BEgCn5-5">
          <mxGeometry relative="1" as="geometry" />
        </mxCell>
        <mxCell id="Pme1cLi6MLW0r7BEgCn5-14" value="Cảm biến hồng ngoại đang hoạt động" style="rounded=1;whiteSpace=wrap;html=1;fontSize=12;glass=0;strokeWidth=1;shadow=0;labelBackgroundColor=none;fillColor=#182E3E;strokeColor=#FFFFFF;fontColor=#FFFFFF;" vertex="1" parent="1">
          <mxGeometry x="305" y="210" width="120" height="40" as="geometry" />
        </mxCell>
      </root>
    </mxGraphModel>
  </diagram>
  <diagram id="bQAA0BoKPLydRRIjNxSS" name="Hẹn giờ bật tắt">
    <mxGraphModel dx="1886" dy="817" grid="1" gridSize="10" guides="1" tooltips="1" connect="1" arrows="1" fold="1" page="1" pageScale="1" pageWidth="850" pageHeight="1100" math="0" shadow="0">
      <root>
        <mxCell id="0" />
        <mxCell id="1" parent="0" />
        <mxCell id="UvRu-eN24MY9F9xD0MlC-1" value="" style="rounded=0;html=1;jettySize=auto;orthogonalLoop=1;fontSize=11;endArrow=block;endFill=0;endSize=8;strokeWidth=1;shadow=0;labelBackgroundColor=none;edgeStyle=orthogonalEdgeStyle;strokeColor=#23445D;fontColor=default;entryX=0.5;entryY=0;entryDx=0;entryDy=0;" edge="1" parent="1" source="UvRu-eN24MY9F9xD0MlC-2" target="UvRu-eN24MY9F9xD0MlC-5">
          <mxGeometry relative="1" as="geometry">
            <mxPoint x="348" y="170" as="targetPoint" />
          </mxGeometry>
        </mxCell>
        <mxCell id="UvRu-eN24MY9F9xD0MlC-2" value="Đèn đang tắt" style="rounded=1;whiteSpace=wrap;html=1;fontSize=12;glass=0;strokeWidth=1;shadow=0;labelBackgroundColor=none;fillColor=#182E3E;strokeColor=#FFFFFF;fontColor=#FFFFFF;" vertex="1" parent="1">
          <mxGeometry x="288" y="70" width="120" height="40" as="geometry" />
        </mxCell>
        <mxCell id="UvRu-eN24MY9F9xD0MlC-3" value="Yes" style="rounded=0;html=1;jettySize=auto;orthogonalLoop=1;fontSize=11;endArrow=block;endFill=0;endSize=8;strokeWidth=1;shadow=0;labelBackgroundColor=none;edgeStyle=orthogonalEdgeStyle;strokeColor=#23445D;fontColor=default;entryX=0.5;entryY=0;entryDx=0;entryDy=0;" edge="1" parent="1" source="UvRu-eN24MY9F9xD0MlC-5" target="UvRu-eN24MY9F9xD0MlC-7">
          <mxGeometry y="20" relative="1" as="geometry">
            <mxPoint as="offset" />
            <mxPoint x="348" y="430" as="targetPoint" />
          </mxGeometry>
        </mxCell>
        <mxCell id="UvRu-eN24MY9F9xD0MlC-4" value="No" style="edgeStyle=orthogonalEdgeStyle;rounded=0;html=1;jettySize=auto;orthogonalLoop=1;fontSize=11;endArrow=block;endFill=0;endSize=8;strokeWidth=1;shadow=0;labelBackgroundColor=none;strokeColor=#23445D;fontColor=default;" edge="1" parent="1" source="UvRu-eN24MY9F9xD0MlC-5" target="UvRu-eN24MY9F9xD0MlC-6">
          <mxGeometry y="10" relative="1" as="geometry">
            <mxPoint as="offset" />
          </mxGeometry>
        </mxCell>
        <mxCell id="UvRu-eN24MY9F9xD0MlC-5" value="18h00 ?" style="rhombus;whiteSpace=wrap;html=1;shadow=0;fontFamily=Helvetica;fontSize=12;align=center;strokeWidth=1;spacing=6;spacingTop=-4;labelBackgroundColor=none;fillColor=#182E3E;strokeColor=#FFFFFF;fontColor=#FFFFFF;" vertex="1" parent="1">
          <mxGeometry x="263" y="190" width="170" height="75" as="geometry" />
        </mxCell>
        <mxCell id="UvRu-eN24MY9F9xD0MlC-6" value="Đèn tắt" style="rounded=1;whiteSpace=wrap;html=1;fontSize=12;glass=0;strokeWidth=1;shadow=0;labelBackgroundColor=none;fillColor=#182E3E;strokeColor=#FFFFFF;fontColor=#FFFFFF;" vertex="1" parent="1">
          <mxGeometry x="488" y="297.5" width="120" height="40" as="geometry" />
        </mxCell>
        <mxCell id="UvRu-eN24MY9F9xD0MlC-7" value="Đèn bật" style="rounded=1;whiteSpace=wrap;html=1;fontSize=12;glass=0;strokeWidth=1;shadow=0;labelBackgroundColor=none;fillColor=#182E3E;strokeColor=#FFFFFF;fontColor=#FFFFFF;" vertex="1" parent="1">
          <mxGeometry x="288" y="370" width="120" height="40" as="geometry" />
        </mxCell>
        <mxCell id="UvRu-eN24MY9F9xD0MlC-8" value="Bật đèn khi có người đi qua" style="text;html=1;align=center;verticalAlign=middle;whiteSpace=wrap;rounded=0;fontColor=#000000;fontStyle=1;fontSize=20;" vertex="1" parent="1">
          <mxGeometry x="260" y="10" width="360" height="30" as="geometry" />
        </mxCell>
      </root>
    </mxGraphModel>
  </diagram>
  <diagram id="itW150DaJy5Tn1o0an7m" name="Điều khiển từ xa">
    <mxGraphModel dx="1886" dy="817" grid="1" gridSize="10" guides="1" tooltips="1" connect="1" arrows="1" fold="1" page="1" pageScale="1" pageWidth="850" pageHeight="1100" math="0" shadow="0">
      <root>
        <mxCell id="0" />
        <mxCell id="1" parent="0" />
        <mxCell id="UlPBfULvNVZy_9esIbH4-1" value="" style="rounded=0;html=1;jettySize=auto;orthogonalLoop=1;fontSize=11;endArrow=block;endFill=0;endSize=8;strokeWidth=1;shadow=0;labelBackgroundColor=none;edgeStyle=orthogonalEdgeStyle;strokeColor=#23445D;fontColor=default;entryX=0.5;entryY=0;entryDx=0;entryDy=0;" parent="1" source="UlPBfULvNVZy_9esIbH4-2" target="UlPBfULvNVZy_9esIbH4-5" edge="1">
          <mxGeometry relative="1" as="geometry">
            <mxPoint x="375" y="170" as="targetPoint" />
          </mxGeometry>
        </mxCell>
        <mxCell id="UlPBfULvNVZy_9esIbH4-2" value="Người dùng bấm nút bật/tắt" style="rounded=1;whiteSpace=wrap;html=1;fontSize=12;glass=0;strokeWidth=1;shadow=0;labelBackgroundColor=none;fillColor=#182E3E;strokeColor=#FFFFFF;fontColor=#FFFFFF;" parent="1" vertex="1">
          <mxGeometry x="315" y="70" width="120" height="40" as="geometry" />
        </mxCell>
        <mxCell id="UlPBfULvNVZy_9esIbH4-3" value="Yes" style="rounded=0;html=1;jettySize=auto;orthogonalLoop=1;fontSize=11;endArrow=block;endFill=0;endSize=8;strokeWidth=1;shadow=0;labelBackgroundColor=none;edgeStyle=orthogonalEdgeStyle;strokeColor=#23445D;fontColor=default;entryX=0.5;entryY=0;entryDx=0;entryDy=0;" parent="1" source="UlPBfULvNVZy_9esIbH4-5" target="UlPBfULvNVZy_9esIbH4-7" edge="1">
          <mxGeometry y="20" relative="1" as="geometry">
            <mxPoint as="offset" />
            <mxPoint x="375" y="430" as="targetPoint" />
          </mxGeometry>
        </mxCell>
        <mxCell id="UlPBfULvNVZy_9esIbH4-4" value="No" style="edgeStyle=orthogonalEdgeStyle;rounded=0;html=1;jettySize=auto;orthogonalLoop=1;fontSize=11;endArrow=block;endFill=0;endSize=8;strokeWidth=1;shadow=0;labelBackgroundColor=none;strokeColor=#23445D;fontColor=default;" parent="1" source="UlPBfULvNVZy_9esIbH4-5" target="UlPBfULvNVZy_9esIbH4-6" edge="1">
          <mxGeometry y="10" relative="1" as="geometry">
            <mxPoint as="offset" />
          </mxGeometry>
        </mxCell>
        <mxCell id="UlPBfULvNVZy_9esIbH4-5" value="Đèn đang bật" style="rhombus;whiteSpace=wrap;html=1;shadow=0;fontFamily=Helvetica;fontSize=12;align=center;strokeWidth=1;spacing=6;spacingTop=-4;labelBackgroundColor=none;fillColor=#182E3E;strokeColor=#FFFFFF;fontColor=#FFFFFF;" parent="1" vertex="1">
          <mxGeometry x="290" y="170" width="170" height="75" as="geometry" />
        </mxCell>
        <mxCell id="UlPBfULvNVZy_9esIbH4-6" value="Bật đèn" style="rounded=1;whiteSpace=wrap;html=1;fontSize=12;glass=0;strokeWidth=1;shadow=0;labelBackgroundColor=none;fillColor=#182E3E;strokeColor=#FFFFFF;fontColor=#FFFFFF;" parent="1" vertex="1">
          <mxGeometry x="515" y="297.5" width="120" height="40" as="geometry" />
        </mxCell>
        <mxCell id="UlPBfULvNVZy_9esIbH4-7" value="Tắt đèn" style="rounded=1;whiteSpace=wrap;html=1;fontSize=12;glass=0;strokeWidth=1;shadow=0;labelBackgroundColor=none;fillColor=#182E3E;strokeColor=#FFFFFF;fontColor=#FFFFFF;" parent="1" vertex="1">
          <mxGeometry x="315" y="297.5" width="120" height="40" as="geometry" />
        </mxCell>
        <mxCell id="UlPBfULvNVZy_9esIbH4-8" value="Điều khiển từ xa" style="text;html=1;align=center;verticalAlign=middle;whiteSpace=wrap;rounded=0;fontColor=#000000;fontStyle=1;fontSize=20;" parent="1" vertex="1">
          <mxGeometry x="280" y="10" width="360" height="30" as="geometry" />
        </mxCell>
      </root>
    </mxGraphModel>
  </diagram>
  <diagram id="QFz-I7TlA4HE3OLShHb2" name="Mô hình tổng quát">
    <mxGraphModel dx="1886" dy="817" grid="1" gridSize="10" guides="1" tooltips="1" connect="1" arrows="1" fold="1" page="1" pageScale="1" pageWidth="850" pageHeight="1100" math="0" shadow="0">
      <root>
        <mxCell id="0" />
        <mxCell id="1" parent="0" />
        <mxCell id="iutmPVVcubmuoEL2Dy1a-1" value="" style="rounded=0;html=1;jettySize=auto;orthogonalLoop=1;fontSize=14;endArrow=block;endFill=0;endSize=8;strokeWidth=1;shadow=0;labelBackgroundColor=none;edgeStyle=orthogonalEdgeStyle;strokeColor=#23445D;fontColor=default;entryX=0.5;entryY=0;entryDx=0;entryDy=0;" parent="1" source="iutmPVVcubmuoEL2Dy1a-2" target="iutmPVVcubmuoEL2Dy1a-5" edge="1">
          <mxGeometry relative="1" as="geometry">
            <mxPoint x="930" y="210" as="targetPoint" />
          </mxGeometry>
        </mxCell>
        <mxCell id="iutmPVVcubmuoEL2Dy1a-2" value="Start" style="rounded=1;whiteSpace=wrap;html=1;fontSize=14;glass=0;strokeWidth=1;shadow=0;labelBackgroundColor=none;fillColor=#182E3E;strokeColor=#FFFFFF;fontColor=#FFFFFF;" parent="1" vertex="1">
          <mxGeometry x="870" y="110" width="120" height="40" as="geometry" />
        </mxCell>
        <mxCell id="iutmPVVcubmuoEL2Dy1a-3" value="Yes" style="rounded=0;html=1;jettySize=auto;orthogonalLoop=1;fontSize=14;endArrow=block;endFill=0;endSize=8;strokeWidth=1;shadow=0;labelBackgroundColor=none;edgeStyle=orthogonalEdgeStyle;strokeColor=#23445D;fontColor=default;entryX=0.5;entryY=0;entryDx=0;entryDy=0;" parent="1" source="iutmPVVcubmuoEL2Dy1a-5" target="iutmPVVcubmuoEL2Dy1a-9" edge="1">
          <mxGeometry y="20" relative="1" as="geometry">
            <mxPoint as="offset" />
            <mxPoint x="930" y="337.5" as="targetPoint" />
          </mxGeometry>
        </mxCell>
        <mxCell id="iutmPVVcubmuoEL2Dy1a-4" value="No" style="edgeStyle=orthogonalEdgeStyle;rounded=0;html=1;jettySize=auto;orthogonalLoop=1;fontSize=14;endArrow=block;endFill=0;endSize=8;strokeWidth=1;shadow=0;labelBackgroundColor=none;strokeColor=#23445D;fontColor=default;" parent="1" source="iutmPVVcubmuoEL2Dy1a-5" target="iutmPVVcubmuoEL2Dy1a-6" edge="1">
          <mxGeometry x="-0.1111" y="-17" relative="1" as="geometry">
            <mxPoint as="offset" />
          </mxGeometry>
        </mxCell>
        <mxCell id="iutmPVVcubmuoEL2Dy1a-5" value="auto mode ON ?" style="rhombus;whiteSpace=wrap;html=1;shadow=0;fontFamily=Helvetica;fontSize=14;align=center;strokeWidth=1;spacing=6;spacingTop=-4;labelBackgroundColor=none;fillColor=#182E3E;strokeColor=#FFFFFF;fontColor=#FFFFFF;" parent="1" vertex="1">
          <mxGeometry x="845" y="210" width="170" height="75" as="geometry" />
        </mxCell>
        <mxCell id="iutmPVVcubmuoEL2Dy1a-35" style="edgeStyle=orthogonalEdgeStyle;rounded=0;orthogonalLoop=1;jettySize=auto;html=1;exitX=0;exitY=0.5;exitDx=0;exitDy=0;entryX=1;entryY=0.5;entryDx=0;entryDy=0;" parent="1" source="iutmPVVcubmuoEL2Dy1a-6" target="iutmPVVcubmuoEL2Dy1a-34" edge="1">
          <mxGeometry relative="1" as="geometry" />
        </mxCell>
        <mxCell id="iutmPVVcubmuoEL2Dy1a-6" value="platform Blynk" style="rounded=1;whiteSpace=wrap;html=1;fontSize=14;glass=0;strokeWidth=1;shadow=0;labelBackgroundColor=none;fillColor=#182E3E;strokeColor=#FFFFFF;fontColor=#FFFFFF;" parent="1" vertex="1">
          <mxGeometry x="635" y="227.5" width="120" height="40" as="geometry" />
        </mxCell>
        <mxCell id="iutmPVVcubmuoEL2Dy1a-8" value="Mô hình tổng hợp" style="text;html=1;align=center;verticalAlign=middle;whiteSpace=wrap;rounded=0;fontColor=#000000;fontStyle=1;fontSize=24;" parent="1" vertex="1">
          <mxGeometry x="670" y="10" width="360" height="30" as="geometry" />
        </mxCell>
        <mxCell id="iutmPVVcubmuoEL2Dy1a-12" value="" style="edgeStyle=orthogonalEdgeStyle;rounded=0;orthogonalLoop=1;jettySize=auto;html=1;" parent="1" source="iutmPVVcubmuoEL2Dy1a-9" target="iutmPVVcubmuoEL2Dy1a-11" edge="1">
          <mxGeometry relative="1" as="geometry" />
        </mxCell>
        <mxCell id="iutmPVVcubmuoEL2Dy1a-14" value="No" style="edgeLabel;html=1;align=center;verticalAlign=middle;resizable=0;points=[];fontSize=14;" parent="iutmPVVcubmuoEL2Dy1a-12" vertex="1" connectable="0">
          <mxGeometry x="-0.181" y="3" relative="1" as="geometry">
            <mxPoint y="-20" as="offset" />
          </mxGeometry>
        </mxCell>
        <mxCell id="iutmPVVcubmuoEL2Dy1a-18" value="" style="edgeStyle=orthogonalEdgeStyle;rounded=0;orthogonalLoop=1;jettySize=auto;html=1;" parent="1" source="iutmPVVcubmuoEL2Dy1a-9" target="iutmPVVcubmuoEL2Dy1a-17" edge="1">
          <mxGeometry relative="1" as="geometry" />
        </mxCell>
        <mxCell id="iutmPVVcubmuoEL2Dy1a-19" value="&lt;font style=&quot;font-size: 14px;&quot;&gt;Yes&lt;/font&gt;" style="edgeLabel;html=1;align=center;verticalAlign=middle;resizable=0;points=[];" parent="iutmPVVcubmuoEL2Dy1a-18" vertex="1" connectable="0">
          <mxGeometry x="-0.15" y="-1" relative="1" as="geometry">
            <mxPoint x="5" y="-18" as="offset" />
          </mxGeometry>
        </mxCell>
        <mxCell id="iutmPVVcubmuoEL2Dy1a-9" value="Is dark ?" style="rhombus;whiteSpace=wrap;html=1;shadow=0;fontFamily=Helvetica;fontSize=14;align=center;strokeWidth=1;spacing=6;spacingTop=-4;labelBackgroundColor=none;fillColor=#182E3E;strokeColor=#FFFFFF;fontColor=#FFFFFF;" parent="1" vertex="1">
          <mxGeometry x="845" y="350" width="170" height="75" as="geometry" />
        </mxCell>
        <mxCell id="iutmPVVcubmuoEL2Dy1a-11" value="Turn OFF LEDs" style="whiteSpace=wrap;html=1;fontSize=14;fillColor=#182E3E;strokeColor=#FFFFFF;fontColor=#FFFFFF;shadow=0;strokeWidth=1;spacing=6;spacingTop=-4;labelBackgroundColor=none;" parent="1" vertex="1">
          <mxGeometry x="625" y="357.5" width="120" height="60" as="geometry" />
        </mxCell>
        <mxCell id="iutmPVVcubmuoEL2Dy1a-21" value="" style="edgeStyle=orthogonalEdgeStyle;rounded=0;orthogonalLoop=1;jettySize=auto;html=1;" parent="1" source="iutmPVVcubmuoEL2Dy1a-17" target="iutmPVVcubmuoEL2Dy1a-20" edge="1">
          <mxGeometry relative="1" as="geometry" />
        </mxCell>
        <mxCell id="iutmPVVcubmuoEL2Dy1a-22" value="Yes" style="edgeLabel;html=1;align=center;verticalAlign=middle;resizable=0;points=[];fontSize=14;" parent="iutmPVVcubmuoEL2Dy1a-21" vertex="1" connectable="0">
          <mxGeometry x="-0.1619" relative="1" as="geometry">
            <mxPoint x="5" y="-17" as="offset" />
          </mxGeometry>
        </mxCell>
        <mxCell id="iutmPVVcubmuoEL2Dy1a-24" value="" style="edgeStyle=orthogonalEdgeStyle;rounded=0;orthogonalLoop=1;jettySize=auto;html=1;" parent="1" source="iutmPVVcubmuoEL2Dy1a-17" target="iutmPVVcubmuoEL2Dy1a-23" edge="1">
          <mxGeometry relative="1" as="geometry" />
        </mxCell>
        <mxCell id="iutmPVVcubmuoEL2Dy1a-25" value="No" style="edgeLabel;html=1;align=center;verticalAlign=middle;resizable=0;points=[];fontSize=14;" parent="iutmPVVcubmuoEL2Dy1a-24" vertex="1" connectable="0">
          <mxGeometry x="-0.2" y="-2" relative="1" as="geometry">
            <mxPoint x="22" y="3" as="offset" />
          </mxGeometry>
        </mxCell>
        <mxCell id="iutmPVVcubmuoEL2Dy1a-17" value="Is after 18:00?" style="rhombus;whiteSpace=wrap;html=1;shadow=0;fontFamily=Helvetica;fontSize=14;align=center;strokeWidth=1;spacing=6;spacingTop=-4;labelBackgroundColor=none;fillColor=#182E3E;strokeColor=#FFFFFF;fontColor=#FFFFFF;" parent="1" vertex="1">
          <mxGeometry x="1120" y="350" width="170" height="75" as="geometry" />
        </mxCell>
        <mxCell id="iutmPVVcubmuoEL2Dy1a-20" value="Turn ON LEDs" style="whiteSpace=wrap;html=1;fontSize=14;fillColor=#182E3E;strokeColor=#FFFFFF;fontColor=#FFFFFF;shadow=0;strokeWidth=1;spacing=6;spacingTop=-4;labelBackgroundColor=none;" parent="1" vertex="1">
          <mxGeometry x="1385" y="357.5" width="120" height="60" as="geometry" />
        </mxCell>
        <mxCell id="iutmPVVcubmuoEL2Dy1a-27" value="" style="edgeStyle=orthogonalEdgeStyle;rounded=0;orthogonalLoop=1;jettySize=auto;html=1;" parent="1" source="iutmPVVcubmuoEL2Dy1a-23" target="iutmPVVcubmuoEL2Dy1a-26" edge="1">
          <mxGeometry relative="1" as="geometry" />
        </mxCell>
        <mxCell id="iutmPVVcubmuoEL2Dy1a-28" value="No" style="edgeLabel;html=1;align=center;verticalAlign=middle;resizable=0;points=[];fontSize=14;" parent="iutmPVVcubmuoEL2Dy1a-27" vertex="1" connectable="0">
          <mxGeometry x="0.1439" y="2" relative="1" as="geometry">
            <mxPoint x="-4" y="-10" as="offset" />
          </mxGeometry>
        </mxCell>
        <mxCell id="iutmPVVcubmuoEL2Dy1a-30" value="" style="edgeStyle=orthogonalEdgeStyle;rounded=0;orthogonalLoop=1;jettySize=auto;html=1;" parent="1" source="iutmPVVcubmuoEL2Dy1a-23" target="iutmPVVcubmuoEL2Dy1a-29" edge="1">
          <mxGeometry relative="1" as="geometry" />
        </mxCell>
        <mxCell id="iutmPVVcubmuoEL2Dy1a-31" value="Yes" style="edgeLabel;html=1;align=center;verticalAlign=middle;resizable=0;points=[];fontSize=14;" parent="iutmPVVcubmuoEL2Dy1a-30" vertex="1" connectable="0">
          <mxGeometry x="-0.2351" y="5" relative="1" as="geometry">
            <mxPoint x="-13" y="-17" as="offset" />
          </mxGeometry>
        </mxCell>
        <mxCell id="iutmPVVcubmuoEL2Dy1a-23" value="Have any person nearly?" style="rhombus;whiteSpace=wrap;html=1;shadow=0;fontFamily=Helvetica;fontSize=14;align=center;strokeWidth=1;spacing=6;spacingTop=-4;labelBackgroundColor=none;fillColor=#182E3E;strokeColor=#FFFFFF;fontColor=#FFFFFF;" parent="1" vertex="1">
          <mxGeometry x="1082.5" y="505" width="245" height="75" as="geometry" />
        </mxCell>
        <mxCell id="iutmPVVcubmuoEL2Dy1a-47" style="edgeStyle=orthogonalEdgeStyle;rounded=0;orthogonalLoop=1;jettySize=auto;html=1;exitX=0.5;exitY=1;exitDx=0;exitDy=0;entryX=1;entryY=0.5;entryDx=0;entryDy=0;" parent="1" source="iutmPVVcubmuoEL2Dy1a-26" target="iutmPVVcubmuoEL2Dy1a-42" edge="1">
          <mxGeometry relative="1" as="geometry" />
        </mxCell>
        <mxCell id="iutmPVVcubmuoEL2Dy1a-26" value="Turn OFF LEDs" style="whiteSpace=wrap;html=1;fontSize=14;fillColor=#182E3E;strokeColor=#FFFFFF;fontColor=#FFFFFF;shadow=0;strokeWidth=1;spacing=6;spacingTop=-4;labelBackgroundColor=none;" parent="1" vertex="1">
          <mxGeometry x="1385" y="512.5" width="120" height="60" as="geometry" />
        </mxCell>
        <mxCell id="iutmPVVcubmuoEL2Dy1a-46" style="edgeStyle=orthogonalEdgeStyle;rounded=0;orthogonalLoop=1;jettySize=auto;html=1;exitX=0.5;exitY=1;exitDx=0;exitDy=0;entryX=0.75;entryY=0;entryDx=0;entryDy=0;" parent="1" source="iutmPVVcubmuoEL2Dy1a-29" target="iutmPVVcubmuoEL2Dy1a-42" edge="1">
          <mxGeometry relative="1" as="geometry" />
        </mxCell>
        <mxCell id="iutmPVVcubmuoEL2Dy1a-29" value="Turn ON LEDs" style="whiteSpace=wrap;html=1;fontSize=14;fillColor=#182E3E;strokeColor=#FFFFFF;fontColor=#FFFFFF;shadow=0;strokeWidth=1;spacing=6;spacingTop=-4;labelBackgroundColor=none;" parent="1" vertex="1">
          <mxGeometry x="820" y="512.5" width="120" height="60" as="geometry" />
        </mxCell>
        <mxCell id="iutmPVVcubmuoEL2Dy1a-37" value="" style="edgeStyle=orthogonalEdgeStyle;rounded=0;orthogonalLoop=1;jettySize=auto;html=1;" parent="1" source="iutmPVVcubmuoEL2Dy1a-34" target="iutmPVVcubmuoEL2Dy1a-36" edge="1">
          <mxGeometry relative="1" as="geometry" />
        </mxCell>
        <mxCell id="iutmPVVcubmuoEL2Dy1a-40" value="Yes" style="edgeLabel;html=1;align=center;verticalAlign=middle;resizable=0;points=[];fontSize=14;" parent="iutmPVVcubmuoEL2Dy1a-37" vertex="1" connectable="0">
          <mxGeometry x="-0.1771" relative="1" as="geometry">
            <mxPoint x="25" as="offset" />
          </mxGeometry>
        </mxCell>
        <mxCell id="iutmPVVcubmuoEL2Dy1a-39" value="" style="edgeStyle=orthogonalEdgeStyle;rounded=0;orthogonalLoop=1;jettySize=auto;html=1;" parent="1" source="iutmPVVcubmuoEL2Dy1a-34" target="iutmPVVcubmuoEL2Dy1a-38" edge="1">
          <mxGeometry relative="1" as="geometry" />
        </mxCell>
        <mxCell id="iutmPVVcubmuoEL2Dy1a-41" value="No" style="edgeLabel;html=1;align=center;verticalAlign=middle;resizable=0;points=[];fontSize=14;" parent="iutmPVVcubmuoEL2Dy1a-39" vertex="1" connectable="0">
          <mxGeometry x="-0.0889" relative="1" as="geometry">
            <mxPoint y="-20" as="offset" />
          </mxGeometry>
        </mxCell>
        <mxCell id="iutmPVVcubmuoEL2Dy1a-34" value="is touch ON?" style="rhombus;whiteSpace=wrap;html=1;shadow=0;fontFamily=Helvetica;fontSize=14;align=center;strokeWidth=1;spacing=6;spacingTop=-4;labelBackgroundColor=none;fillColor=#182E3E;strokeColor=#FFFFFF;fontColor=#FFFFFF;" parent="1" vertex="1">
          <mxGeometry x="405" y="210" width="170" height="75" as="geometry" />
        </mxCell>
        <mxCell id="iutmPVVcubmuoEL2Dy1a-44" style="edgeStyle=orthogonalEdgeStyle;rounded=0;orthogonalLoop=1;jettySize=auto;html=1;exitX=0.5;exitY=1;exitDx=0;exitDy=0;entryX=0;entryY=0.25;entryDx=0;entryDy=0;" parent="1" source="iutmPVVcubmuoEL2Dy1a-36" target="iutmPVVcubmuoEL2Dy1a-42" edge="1">
          <mxGeometry relative="1" as="geometry" />
        </mxCell>
        <mxCell id="iutmPVVcubmuoEL2Dy1a-36" value="Turn ON LEDs" style="whiteSpace=wrap;html=1;fontSize=14;fillColor=#182E3E;strokeColor=#FFFFFF;fontColor=#FFFFFF;shadow=0;strokeWidth=1;spacing=6;spacingTop=-4;labelBackgroundColor=none;" parent="1" vertex="1">
          <mxGeometry x="430" y="357.5" width="120" height="60" as="geometry" />
        </mxCell>
        <mxCell id="iutmPVVcubmuoEL2Dy1a-48" style="edgeStyle=orthogonalEdgeStyle;rounded=0;orthogonalLoop=1;jettySize=auto;html=1;exitX=0.5;exitY=1;exitDx=0;exitDy=0;entryX=0;entryY=0.75;entryDx=0;entryDy=0;" parent="1" source="iutmPVVcubmuoEL2Dy1a-38" target="iutmPVVcubmuoEL2Dy1a-42" edge="1">
          <mxGeometry relative="1" as="geometry" />
        </mxCell>
        <mxCell id="iutmPVVcubmuoEL2Dy1a-38" value="Turn OFF LEDs" style="whiteSpace=wrap;html=1;fontSize=14;fillColor=#182E3E;strokeColor=#FFFFFF;fontColor=#FFFFFF;shadow=0;strokeWidth=1;spacing=6;spacingTop=-4;labelBackgroundColor=none;" parent="1" vertex="1">
          <mxGeometry x="195" y="217.5" width="120" height="60" as="geometry" />
        </mxCell>
        <mxCell id="iutmPVVcubmuoEL2Dy1a-42" value="Finish" style="rounded=1;whiteSpace=wrap;html=1;fontSize=14;glass=0;strokeWidth=1;shadow=0;labelBackgroundColor=none;fillColor=#182E3E;strokeColor=#FFFFFF;fontColor=#FFFFFF;" parent="1" vertex="1">
          <mxGeometry x="790" y="720" width="120" height="40" as="geometry" />
        </mxCell>
      </root>
    </mxGraphModel>
  </diagram>
</mxfile>
